<?xml version="1.0" encoding="UTF-8" standalone="no"?>
<!-- Generator: Adobe Illustrator 21.0.0, SVG Export Plug-In . SVG Version: 6.00 Build 0)  -->

<svg
   version="1.1"
   id="Layer_1"
   x="0px"
   y="0px"
   viewBox="0 0 512 512"
   style="enable-background:new 0 0 512 512;"
   xml:space="preserve"
   xmlns="http://www.w3.org/2000/svg"
   xmlns:svg="http://www.w3.org/2000/svg"><defs
   id="defs4">
	
</defs>
<style
   type="text/css"
   id="style1">
	.st0{fill:url(#SVGID_1_);}
	.st1{fill:#C95EBE;}
	.st2{fill:#FCFCFC;}
	.st3{fill:#C95EBC;}
</style>
<g
   id="svg_1">
		
			<radialGradient
   id="SVGID_1_"
   cx="-24.309099"
   cy="672.21552"
   r="13.2297"
   gradientTransform="matrix(0,15.3688,15.4467,0,-10127.536,629.6019)"
   gradientUnits="userSpaceOnUse">
			<stop
   offset="0"
   style="stop-color:#412A4C"
   id="stop1" />
			<stop
   offset="4.280270e-03"
   style="stop-color:#412A4C"
   id="stop2" />
			<stop
   offset="1"
   style="stop-color:#2C1338"
   id="stop3" />
		</radialGradient>
		<path
   class="st0"
   d="M 360.6,52.7 H 151.4 c -54.5,0 -98.7,44.2 -98.7,98.7 v 209.2 c 0,54.5 44.2,98.7 98.7,98.7 h 209.2 c 54.5,0 98.7,-44.2 98.7,-98.7 V 151.4 c 0,-54.5 -44.2,-98.7 -98.7,-98.7 z"
   id="path3"
   style="fill:url(#SVGID_1_)" />
		<path
   id="svg_2"
   class="st1"
   d="m 256,104.5 v 0 c 83.7,0 151.5,67.8 151.5,151.5 v 0 c 0,83.7 -67.8,151.5 -151.5,151.5 v 0 C 172.3,407.5 104.5,339.7 104.5,256 v 0 c 0,-83.7 67.8,-151.5 151.5,-151.5 z" />
		
		<path
   class="st3"
   d="m 248.1,255.6 v 0.4 c 0,4.4 3.5,7.9 7.9,7.9 h 23.7 c 4.4,0 7.9,-3.5 7.9,-7.9 0,-4.4 -3.5,-7.9 -7.9,-7.9 h -15.8 v -31.6 c 0,-4.4 -3.5,-7.9 -7.9,-7.9 -4.4,0 -7.9,3.5 -7.9,7.9 v 38.7 z"
   id="path4" />
	</g>
</svg>
