<?xml version="1.0" encoding="UTF-8" standalone="no"?>
<!-- Generator: Adobe Illustrator 21.0.0, SVG Export Plug-In . SVG Version: 6.00 Build 0)  -->

<svg
   version="1.1"
   id="Layer_1"
   x="0px"
   y="0px"
   viewBox="0 0 512 512"
   style="enable-background:new 0 0 512 512;"
   xml:space="preserve"
   sodipodi:docname="client.svg"
   inkscape:version="1.4 (e7c3feb100, 2024-10-09)"
   xmlns:inkscape="http://www.inkscape.org/namespaces/inkscape"
   xmlns:sodipodi="http://sodipodi.sourceforge.net/DTD/sodipodi-0.dtd"
   xmlns="http://www.w3.org/2000/svg"
   xmlns:svg="http://www.w3.org/2000/svg"><sodipodi:namedview
   id="namedview1"
   pagecolor="#ffffff"
   bordercolor="#000000"
   borderopacity="0.25"
   inkscape:showpageshadow="2"
   inkscape:pageopacity="0.0"
   inkscape:pagecheckerboard="0"
   inkscape:deskcolor="#d1d1d1"
   inkscape:zoom="0.9500344"
   inkscape:cx="211.04499"
   inkscape:cy="204.20313"
   inkscape:window-width="1920"
   inkscape:window-height="1009"
   inkscape:window-x="1080"
   inkscape:window-y="35"
   inkscape:window-maximized="1"
   inkscape:current-layer="Layer_1" /><defs
   id="defs4">
	
</defs>
<style
   type="text/css"
   id="style1">
	.st0{fill:url(#SVGID_1_);}
	.st1{fill:#C95EBE;}
	.st2{fill:#FCFCFC;}
	.st3{fill:#C95EBC;}
</style>
<g
   id="svg_1">
		
			<radialGradient
   id="SVGID_1_"
   cx="-24.309099"
   cy="672.21552"
   r="13.2297"
   gradientTransform="matrix(0,15.3688,15.4467,0,-10127.536,629.6019)"
   gradientUnits="userSpaceOnUse">
			<stop
   offset="0"
   style="stop-color:#412A4C"
   id="stop1" />
			<stop
   offset="4.280270e-03"
   style="stop-color:#412A4C"
   id="stop2" />
			<stop
   offset="1"
   style="stop-color:#2C1338"
   id="stop3" />
		</radialGradient>
		<path
   class="st0"
   d="M 360.6,52.7 H 151.4 c -54.5,0 -98.7,44.2 -98.7,98.7 v 209.2 c 0,54.5 44.2,98.7 98.7,98.7 h 209.2 c 54.5,0 98.7,-44.2 98.7,-98.7 V 151.4 c 0,-54.5 -44.2,-98.7 -98.7,-98.7 z"
   id="path3"
   style="fill:url(#SVGID_1_)" />
		<path
   id="svg_2"
   class="st1"
   d="m 256,104.5 v 0 c 83.7,0 151.5,67.8 151.5,151.5 v 0 c 0,83.7 -67.8,151.5 -151.5,151.5 v 0 C 172.3,407.5 104.5,339.7 104.5,256 v 0 c 0,-83.7 67.8,-151.5 151.5,-151.5 z" />
		
		
	</g>
<path
   style="fill:#ffffff;stroke-width:0.749339"
   d="m 248.04731,340.04637 c -30.04059,-1.76836 -51.75305,-14.54936 -57.64856,-33.93473 -5.03775,-16.56494 -0.36826,-29.53657 11.83311,-32.87181 2.93891,-0.80335 105.10412,-0.67689 107.90355,0.13356 12.09073,3.50036 16.62174,17.13385 11.17398,33.62175 -7.38725,22.35792 -35.95785,35.24716 -73.26208,33.05123 z m 2.9029,-84.20068 c -35.80573,-4.50765 -50.03083,-49.56747 -23.14767,-73.32321 26.05722,-23.02587 66.71977,-6.97429 70.12346,27.6813 2.58261,26.29546 -20.72994,48.94604 -46.97579,45.64191 z"
   id="path5" /></svg>
