<?xml version="1.0" encoding="UTF-8" standalone="no"?>
<!-- Generator: Adobe Illustrator 21.0.0, SVG Export Plug-In . SVG Version: 6.00 Build 0)  -->

<svg
   version="1.1"
   id="Layer_1"
   x="0px"
   y="0px"
   viewBox="0 0 512 512"
   style="enable-background:new 0 0 512 512;"
   xml:space="preserve"
   sodipodi:docname="previous.svg"
   inkscape:export-filename="previous.svg"
   inkscape:export-xdpi="96"
   inkscape:export-ydpi="96"
   inkscape:version="1.4 (e7c3feb100, 2024-10-09)"
   xmlns:inkscape="http://www.inkscape.org/namespaces/inkscape"
   xmlns:sodipodi="http://sodipodi.sourceforge.net/DTD/sodipodi-0.dtd"
   xmlns="http://www.w3.org/2000/svg"
   xmlns:svg="http://www.w3.org/2000/svg"><defs
   id="defs3" /><sodipodi:namedview
   id="namedview3"
   pagecolor="#ffffff"
   bordercolor="#000000"
   borderopacity="0.25"
   inkscape:showpageshadow="2"
   inkscape:pageopacity="0.0"
   inkscape:pagecheckerboard="0"
   inkscape:deskcolor="#d1d1d1"
   inkscape:zoom="1.0179322"
   inkscape:cx="252.96381"
   inkscape:cy="244.61355"
   inkscape:window-width="1920"
   inkscape:window-height="1009"
   inkscape:window-x="1080"
   inkscape:window-y="35"
   inkscape:window-maximized="1"
   inkscape:current-layer="g3" />
<style
   type="text/css"
   id="style1">
	.st0{fill:url(#SVGID_1_);}
	.st1{fill:#C95EBE;}
	.st2{fill:#FCFCFC;}
</style>
<g
   id="g3">
	<g
   id="svg_1">
		
			<radialGradient
   id="SVGID_1_"
   cx="-24.3091"
   cy="672.2155"
   r="13.2297"
   gradientTransform="matrix(9.695638e-16 15.3688 15.4467 -9.180418e-16 -10127.5361 629.6019)"
   gradientUnits="userSpaceOnUse">
			<stop
   offset="0"
   style="stop-color:#412A4C"
   id="stop1" />
			<stop
   offset="4.280270e-03"
   style="stop-color:#412A4C"
   id="stop2" />
			<stop
   offset="1"
   style="stop-color:#2C1338"
   id="stop3" />
		</radialGradient>
		<path
   class="st0"
   d="M360.6,52.7H151.4c-54.5,0-98.7,44.2-98.7,98.7v209.2c0,54.5,44.2,98.7,98.7,98.7h209.2    c54.5,0,98.7-44.2,98.7-98.7V151.4C459.3,96.9,415.1,52.7,360.6,52.7z"
   id="path3" />
		<path
   id="svg_2"
   class="st1"
   d="M256,104.5L256,104.5c83.7,0,151.5,67.8,151.5,151.5l0,0c0,83.7-67.8,151.5-151.5,151.5l0,0    c-83.7,0-151.5-67.8-151.5-151.5l0,0C104.5,172.3,172.3,104.5,256,104.5z" />
		<path
   id="svg_3"
   class="st2"
   d="m 310.65628,205.47194 c 0,-9.3 -6.5,-13.1 -14.7,-8.4 l -88.5,50.5 c -8.1,4.6 -8.2,12.1 0,16.8 l 88.5,50.6 c 8.1,4.6 14.7,0.9 14.7,-8.4 0,0.1 0,-101.1 0,-101.1 z" />
	</g>
</g>
</svg>
