<?xml version="1.0" encoding="UTF-8" standalone="no"?>
<!-- Generator: Adobe Illustrator 21.0.0, SVG Export Plug-In . SVG Version: 6.00 Build 0)  -->

<svg
   version="1.1"
   id="Layer_1"
   x="0px"
   y="0px"
   viewBox="0 0 512 512"
   style="enable-background:new 0 0 512 512;"
   xml:space="preserve"
   sodipodi:docname="tag.svg"
   inkscape:version="1.4 (e7c3feb100, 2024-10-09)"
   xmlns:inkscape="http://www.inkscape.org/namespaces/inkscape"
   xmlns:sodipodi="http://sodipodi.sourceforge.net/DTD/sodipodi-0.dtd"
   xmlns="http://www.w3.org/2000/svg"
   xmlns:svg="http://www.w3.org/2000/svg"><sodipodi:namedview
   id="namedview1"
   pagecolor="#ffffff"
   bordercolor="#000000"
   borderopacity="0.25"
   inkscape:showpageshadow="2"
   inkscape:pageopacity="0.0"
   inkscape:pagecheckerboard="0"
   inkscape:deskcolor="#d1d1d1"
   inkscape:zoom="0.75752304"
   inkscape:cx="252.13754"
   inkscape:cy="130.68909"
   inkscape:window-width="1920"
   inkscape:window-height="1009"
   inkscape:window-x="1080"
   inkscape:window-y="35"
   inkscape:window-maximized="1"
   inkscape:current-layer="Layer_1" /><defs
   id="defs4">
	
</defs>
<style
   type="text/css"
   id="style1">
	.st0{fill:url(#SVGID_1_);}
	.st1{fill:#C95EBE;}
	.st2{fill:#FCFCFC;}
	.st3{fill:#C95EBC;}
</style>
<g
   id="svg_1">
		
			<radialGradient
   id="SVGID_1_"
   cx="-24.309099"
   cy="672.21552"
   r="13.2297"
   gradientTransform="matrix(0,15.3688,15.4467,0,-10127.536,629.6019)"
   gradientUnits="userSpaceOnUse">
			<stop
   offset="0"
   style="stop-color:#412A4C"
   id="stop1" />
			<stop
   offset="4.280270e-03"
   style="stop-color:#412A4C"
   id="stop2" />
			<stop
   offset="1"
   style="stop-color:#2C1338"
   id="stop3" />
		</radialGradient>
		<path
   class="st0"
   d="M 360.6,52.7 H 151.4 c -54.5,0 -98.7,44.2 -98.7,98.7 v 209.2 c 0,54.5 44.2,98.7 98.7,98.7 h 209.2 c 54.5,0 98.7,-44.2 98.7,-98.7 V 151.4 c 0,-54.5 -44.2,-98.7 -98.7,-98.7 z"
   id="path3"
   style="fill:url(#SVGID_1_)" />
		<path
   id="svg_2"
   class="st1"
   d="m 256,104.5 v 0 c 83.7,0 151.5,67.8 151.5,151.5 v 0 c 0,83.7 -67.8,151.5 -151.5,151.5 v 0 C 172.3,407.5 104.5,339.7 104.5,256 v 0 c 0,-83.7 67.8,-151.5 151.5,-151.5 z" />
		
		<path
   class="st3"
   d="m 248.1,255.6 v 0.4 c 0,4.4 3.5,7.9 7.9,7.9 h 23.7 c 4.4,0 7.9,-3.5 7.9,-7.9 0,-4.4 -3.5,-7.9 -7.9,-7.9 h -15.8 v -31.6 c 0,-4.4 -3.5,-7.9 -7.9,-7.9 -4.4,0 -7.9,3.5 -7.9,7.9 v 38.7 z"
   id="path4" />
	</g>
<path
   style="fill:#ffffff;stroke-width:0.820156"
   d="m 270.86228,336.73033 c 3.03792,-0.6628 5.98072,-2.03073 8.32476,-3.86967 0.52306,-0.41034 12.80811,-12.55409 27.30012,-26.9861 28.39756,-28.28 27.63594,-27.4679 29.18135,-31.11575 1.12129,-2.64677 1.52525,-4.70329 1.54226,-7.85157 0.0177,-3.27845 -0.31899,-5.08773 -1.44744,-7.77779 -1.38084,-3.2918 -2.49569,-4.71835 -8.05178,-10.30305 l -5.12515,-5.15153 -39.44713,39.44378 -39.44715,39.44378 4.9487,4.96302 c 6.37171,6.39014 8.32678,7.73585 13.09509,9.01358 2.25745,0.60492 6.79471,0.70002 9.12637,0.1913 z m 5.33775,-60.61536 39.37783,-39.37821 -25.04918,-25.01585 c -13.77705,-13.75871 -26.05521,-26.06404 -27.28482,-27.34517 -2.41254,-2.51367 -3.5425,-3.26024 -5.48999,-3.62723 -1.50314,-0.28327 -68.04616,-0.28218 -69.54007,8.2e-4 -2.61798,0.49649 -5.21133,2.36278 -6.41104,4.61365 -1.32165,2.47967 -1.24369,0.13935 -1.24369,37.33394 0,23.82096 0.0656,34.10182 0.22257,34.85661 0.12242,0.58881 0.49906,1.66146 0.837,2.38369 0.57394,1.22658 2.40201,3.1008 27.73422,28.4344 14.91589,14.91669 27.19844,27.12126 27.29456,27.12126 0.0961,0 17.8948,-17.72019 39.55261,-39.37822 z m -51.24365,-27.47332 c -7.27202,-1.89383 -12.5748,-7.29673 -14.4441,-14.71683 -0.5131,-2.03668 -0.45467,-6.89393 0.10794,-8.97229 2.32944,-8.60548 9.38842,-14.42173 18.01976,-14.8474 5.44721,-0.26863 10.33568,1.51378 14.19742,5.17662 2.16858,2.05689 3.28972,3.58395 4.48725,6.11198 1.33169,2.81121 1.80267,4.93746 1.80301,8.13971 5.8e-4,5.37285 -1.6812,9.62866 -5.33614,13.50333 -3.18764,3.37929 -6.47287,5.08133 -11.7172,6.07053 -1.16858,0.22042 -5.5956,-0.0692 -7.11794,-0.46565 z m 7.56285,-9.70028 c 1.61735,-0.51713 2.83297,-1.2778 4.10081,-2.56606 1.97516,-2.00697 2.8646,-4.48604 2.67217,-7.44794 -0.53671,-8.2613 -10.65956,-12.04522 -16.52699,-6.17779 -2.05273,2.05273 -2.91904,4.39323 -2.76782,7.47782 0.0824,1.68133 0.18928,2.13638 0.82274,3.50357 1.21679,2.62622 3.53521,4.58455 6.30468,5.32544 1.43418,0.38368 4.00621,0.32883 5.39441,-0.11504 z"
   id="path1" /></svg>
